<svg xmlns="http://www.w3.org/2000/svg" viewBox="0 0 1024 1024" width="1024" height="1024">
  <path fill="#000000" d="M 512.0 122.0 Q 512.0 122.0 551.2 222.3 Q 590.5 322.6 689.1 279.4 Q 787.8 236.2 744.6 334.9 Q 701.4 433.5 801.7 472.8 Q 902.0 512.0 801.7 551.2 Q 701.4 590.5 744.6 689.1 Q 787.8 787.8 689.1 744.6 Q 590.5 701.4 551.2 801.7 Q 512.0 902.0 472.8 801.7 Q 433.5 701.4 334.9 744.6 Q 236.2 787.8 279.4 689.1 Q 322.6 590.5 222.3 551.2 Q 122.0 512.0 222.3 472.8 Q 322.6 433.5 279.4 334.9 Q 236.2 236.2 334.9 279.4 Q 433.5 322.6 472.8 222.3 Z"/>
</svg>
