<svg xmlns="http://www.w3.org/2000/svg" viewBox="0 0 1024 1024" width="1024" height="1024">
  <path fill="#000000" d="M 512.0 122.0 Q 512.0 122.0 556.5 224.7 Q 600.9 327.3 708.9 298.1 Q 816.9 268.8 764.4 367.6 Q 711.9 466.4 802.0 532.6 Q 892.2 598.8 782.2 619.3 Q 672.3 639.8 676.7 751.6 Q 681.2 863.4 596.6 790.2 Q 512.0 717.0 427.4 790.2 Q 342.8 863.4 347.3 751.6 Q 351.7 639.8 241.8 619.3 Q 131.8 598.8 222.0 532.6 Q 312.1 466.4 259.6 367.6 Q 207.1 268.8 315.1 298.1 Q 423.1 327.3 467.5 224.7 Z"/>
</svg>
