<svg xmlns="http://www.w3.org/2000/svg" viewBox="0 0 1024 1024" width="1024" height="1024">
  <path fill="#000000" d="M 120.0 159.0 L 191.3 127.0 L 262.5 166.0 L 333.8 128.0 L 405.1 172.0 L 476.4 169.0 L 547.6 182.0 L 618.9 176.0 L 690.2 140.0 L 761.5 166.0 L 832.7 177.0 L 904.0 138.0 L 900.0 243.0 L 880.0 540.0 L 900.0 803.0 L 904.0 884.0 L 832.7 875.0 L 761.5 890.0 L 690.2 833.0 L 618.9 839.0 L 547.6 859.0 L 476.4 884.0 L 405.1 850.0 L 333.8 862.0 L 262.5 825.0 L 191.3 838.0 L 120.0 884.0 L 124.0 810.0 L 144.0 500.0 L 120.0 246.0 Z"/>
</svg>
