<svg xmlns="http://www.w3.org/2000/svg" viewBox="0 0 1024 1024" width="1024" height="1024">
  <path fill="#000000" d="M 120.0 134.0 L 191.3 136.0 L 262.5 171.0 L 333.8 116.0 L 405.1 148.0 L 476.4 171.0 L 547.6 176.0 L 618.9 184.0 L 690.2 174.0 L 761.5 161.0 L 832.7 121.0 L 904.0 153.0 L 900.0 248.0 L 880.0 516.0 L 900.0 761.0 L 904.0 863.0 L 832.7 836.0 L 761.5 885.0 L 690.2 877.0 L 618.9 824.0 L 547.6 880.0 L 476.4 822.0 L 405.1 830.0 L 333.8 828.0 L 262.5 844.0 L 191.3 893.0 L 120.0 826.0 L 124.0 794.0 L 144.0 537.0 L 120.0 214.0 Z"/>
</svg>
