<svg xmlns="http://www.w3.org/2000/svg" viewBox="0 0 1024 1024" width="1024" height="1024">
  <path fill="#000000" d="M 120.0 172.0 L 191.3 182.0 L 262.5 142.0 L 333.8 181.0 L 405.1 125.0 L 476.4 117.0 L 547.6 150.0 L 618.9 130.0 L 690.2 171.0 L 761.5 176.0 L 832.7 174.0 L 904.0 136.0 L 900.0 206.0 L 880.0 528.0 L 900.0 761.0 L 904.0 862.0 L 832.7 824.0 L 761.5 847.0 L 690.2 882.0 L 618.9 824.0 L 547.6 865.0 L 476.4 881.0 L 405.1 831.0 L 333.8 834.0 L 262.5 897.0 L 191.3 879.0 L 120.0 883.0 L 124.0 770.0 L 144.0 527.0 L 120.0 220.0 Z"/>
</svg>
