<svg xmlns="http://www.w3.org/2000/svg" viewBox="0 0 1024 1024"><mask id="m"><rect width="1024" height="1024" fill="#fff"/><circle cx="70" cy="48" r="18"/><circle cx="70" cy="976" r="18"/><circle cx="128" cy="48" r="18"/><circle cx="128" cy="976" r="18"/><circle cx="186" cy="48" r="18"/><circle cx="186" cy="976" r="18"/><circle cx="244" cy="48" r="18"/><circle cx="244" cy="976" r="18"/><circle cx="302" cy="48" r="18"/><circle cx="302" cy="976" r="18"/><circle cx="360" cy="48" r="18"/><circle cx="360" cy="976" r="18"/><circle cx="418" cy="48" r="18"/><circle cx="418" cy="976" r="18"/><circle cx="476" cy="48" r="18"/><circle cx="476" cy="976" r="18"/><circle cx="534" cy="48" r="18"/><circle cx="534" cy="976" r="18"/><circle cx="592" cy="48" r="18"/><circle cx="592" cy="976" r="18"/><circle cx="650" cy="48" r="18"/><circle cx="650" cy="976" r="18"/><circle cx="708" cy="48" r="18"/><circle cx="708" cy="976" r="18"/><circle cx="766" cy="48" r="18"/><circle cx="766" cy="976" r="18"/><circle cx="824" cy="48" r="18"/><circle cx="824" cy="976" r="18"/><circle cx="882" cy="48" r="18"/><circle cx="882" cy="976" r="18"/><circle cx="940" cy="48" r="18"/><circle cx="940" cy="976" r="18"/><circle cx="48" cy="70" r="18"/><circle cx="976" cy="70" r="18"/><circle cx="48" cy="128" r="18"/><circle cx="976" cy="128" r="18"/><circle cx="48" cy="186" r="18"/><circle cx="976" cy="186" r="18"/><circle cx="48" cy="244" r="18"/><circle cx="976" cy="244" r="18"/><circle cx="48" cy="302" r="18"/><circle cx="976" cy="302" r="18"/><circle cx="48" cy="360" r="18"/><circle cx="976" cy="360" r="18"/><circle cx="48" cy="418" r="18"/><circle cx="976" cy="418" r="18"/><circle cx="48" cy="476" r="18"/><circle cx="976" cy="476" r="18"/><circle cx="48" cy="534" r="18"/><circle cx="976" cy="534" r="18"/><circle cx="48" cy="592" r="18"/><circle cx="976" cy="592" r="18"/><circle cx="48" cy="650" r="18"/><circle cx="976" cy="650" r="18"/><circle cx="48" cy="708" r="18"/><circle cx="976" cy="708" r="18"/><circle cx="48" cy="766" r="18"/><circle cx="976" cy="766" r="18"/><circle cx="48" cy="824" r="18"/><circle cx="976" cy="824" r="18"/><circle cx="48" cy="882" r="18"/><circle cx="976" cy="882" r="18"/><circle cx="48" cy="940" r="18"/><circle cx="976" cy="940" r="18"/></mask><rect x="28" y="28" width="968" height="968" fill="#fff" mask="url(#m)"/><rect x="118" y="118" width="788" height="788" fill="none" stroke="#d8d8d8" stroke-width="5"/></svg>