<svg xmlns="http://www.w3.org/2000/svg" viewBox="0 0 1024 1536"><rect width="1024" height="1536" fill="#111111"/><g fill="#ffffff" opacity="1"><rect x="32" y="80" width="54" height="36" rx="8"/><rect x="938" y="80" width="54" height="36" rx="8"/><rect x="32" y="172" width="54" height="36" rx="8"/><rect x="938" y="172" width="54" height="36" rx="8"/><rect x="32" y="264" width="54" height="36" rx="8"/><rect x="938" y="264" width="54" height="36" rx="8"/><rect x="32" y="356" width="54" height="36" rx="8"/><rect x="938" y="356" width="54" height="36" rx="8"/><rect x="32" y="448" width="54" height="36" rx="8"/><rect x="938" y="448" width="54" height="36" rx="8"/><rect x="32" y="540" width="54" height="36" rx="8"/><rect x="938" y="540" width="54" height="36" rx="8"/><rect x="32" y="632" width="54" height="36" rx="8"/><rect x="938" y="632" width="54" height="36" rx="8"/><rect x="32" y="724" width="54" height="36" rx="8"/><rect x="938" y="724" width="54" height="36" rx="8"/><rect x="32" y="816" width="54" height="36" rx="8"/><rect x="938" y="816" width="54" height="36" rx="8"/><rect x="32" y="908" width="54" height="36" rx="8"/><rect x="938" y="908" width="54" height="36" rx="8"/><rect x="32" y="1000" width="54" height="36" rx="8"/><rect x="938" y="1000" width="54" height="36" rx="8"/><rect x="32" y="1092" width="54" height="36" rx="8"/><rect x="938" y="1092" width="54" height="36" rx="8"/><rect x="32" y="1184" width="54" height="36" rx="8"/><rect x="938" y="1184" width="54" height="36" rx="8"/><rect x="32" y="1276" width="54" height="36" rx="8"/><rect x="938" y="1276" width="54" height="36" rx="8"/><rect x="32" y="1368" width="54" height="36" rx="8"/><rect x="938" y="1368" width="54" height="36" rx="8"/></g><rect x="128" y="88" width="768" height="1360" fill="none" stroke="#fff" stroke-width="8"/></svg>