<svg xmlns="http://www.w3.org/2000/svg" viewBox="0 0 512 512"><g fill="#b8b8b8" opacity=".18"><rect x="0" y="0" width="64" height="64"/><rect x="0" y="128" width="64" height="64"/><rect x="0" y="256" width="64" height="64"/><rect x="0" y="384" width="64" height="64"/><rect x="64" y="64" width="64" height="64"/><rect x="64" y="192" width="64" height="64"/><rect x="64" y="320" width="64" height="64"/><rect x="64" y="448" width="64" height="64"/><rect x="128" y="0" width="64" height="64"/><rect x="128" y="128" width="64" height="64"/><rect x="128" y="256" width="64" height="64"/><rect x="128" y="384" width="64" height="64"/><rect x="192" y="64" width="64" height="64"/><rect x="192" y="192" width="64" height="64"/><rect x="192" y="320" width="64" height="64"/><rect x="192" y="448" width="64" height="64"/><rect x="256" y="0" width="64" height="64"/><rect x="256" y="128" width="64" height="64"/><rect x="256" y="256" width="64" height="64"/><rect x="256" y="384" width="64" height="64"/><rect x="320" y="64" width="64" height="64"/><rect x="320" y="192" width="64" height="64"/><rect x="320" y="320" width="64" height="64"/><rect x="320" y="448" width="64" height="64"/><rect x="384" y="0" width="64" height="64"/><rect x="384" y="128" width="64" height="64"/><rect x="384" y="256" width="64" height="64"/><rect x="384" y="384" width="64" height="64"/><rect x="448" y="64" width="64" height="64"/><rect x="448" y="192" width="64" height="64"/><rect x="448" y="320" width="64" height="64"/><rect x="448" y="448" width="64" height="64"/></g></svg>