<svg xmlns="http://www.w3.org/2000/svg" viewBox="0 0 1024 1536"><path d="M50 50 L58 50L86 68L114 50L142 68L170 50L198 68L226 50L254 68L282 50L310 68L338 50L366 68L394 50L422 68L450 50L478 68L506 50L534 68L562 50L590 68L618 50L646 68L674 50L702 68L730 50L758 68L786 50L814 68L842 50L870 68L898 50L926 68L954 50 L974 50 V1486 L50 1486 Z" fill="#fffdf7"/><rect x="104" y="120" width="816" height="1110" fill="none" stroke="#d8d0c6" stroke-width="4" stroke-dasharray="18 16"/><path d="M160 1300h704M220 1365h584" stroke="#d8d0c6" stroke-width="8" stroke-linecap="round"/></svg>