<svg xmlns="http://www.w3.org/2000/svg" viewBox="0 0 512 512"><rect width="512" height="512" fill="none"/><g fill="#b8b8b8" opacity=".55"><circle cx="32" cy="32" r="3"/><circle cx="32" cy="96" r="3"/><circle cx="32" cy="160" r="3"/><circle cx="32" cy="224" r="3"/><circle cx="32" cy="288" r="3"/><circle cx="32" cy="352" r="3"/><circle cx="32" cy="416" r="3"/><circle cx="32" cy="480" r="3"/><circle cx="96" cy="32" r="3"/><circle cx="96" cy="96" r="3"/><circle cx="96" cy="160" r="3"/><circle cx="96" cy="224" r="3"/><circle cx="96" cy="288" r="3"/><circle cx="96" cy="352" r="3"/><circle cx="96" cy="416" r="3"/><circle cx="96" cy="480" r="3"/><circle cx="160" cy="32" r="3"/><circle cx="160" cy="96" r="3"/><circle cx="160" cy="160" r="3"/><circle cx="160" cy="224" r="3"/><circle cx="160" cy="288" r="3"/><circle cx="160" cy="352" r="3"/><circle cx="160" cy="416" r="3"/><circle cx="160" cy="480" r="3"/><circle cx="224" cy="32" r="3"/><circle cx="224" cy="96" r="3"/><circle cx="224" cy="160" r="3"/><circle cx="224" cy="224" r="3"/><circle cx="224" cy="288" r="3"/><circle cx="224" cy="352" r="3"/><circle cx="224" cy="416" r="3"/><circle cx="224" cy="480" r="3"/><circle cx="288" cy="32" r="3"/><circle cx="288" cy="96" r="3"/><circle cx="288" cy="160" r="3"/><circle cx="288" cy="224" r="3"/><circle cx="288" cy="288" r="3"/><circle cx="288" cy="352" r="3"/><circle cx="288" cy="416" r="3"/><circle cx="288" cy="480" r="3"/><circle cx="352" cy="32" r="3"/><circle cx="352" cy="96" r="3"/><circle cx="352" cy="160" r="3"/><circle cx="352" cy="224" r="3"/><circle cx="352" cy="288" r="3"/><circle cx="352" cy="352" r="3"/><circle cx="352" cy="416" r="3"/><circle cx="352" cy="480" r="3"/><circle cx="416" cy="32" r="3"/><circle cx="416" cy="96" r="3"/><circle cx="416" cy="160" r="3"/><circle cx="416" cy="224" r="3"/><circle cx="416" cy="288" r="3"/><circle cx="416" cy="352" r="3"/><circle cx="416" cy="416" r="3"/><circle cx="416" cy="480" r="3"/><circle cx="480" cy="32" r="3"/><circle cx="480" cy="96" r="3"/><circle cx="480" cy="160" r="3"/><circle cx="480" cy="224" r="3"/><circle cx="480" cy="288" r="3"/><circle cx="480" cy="352" r="3"/><circle cx="480" cy="416" r="3"/><circle cx="480" cy="480" r="3"/></g></svg>