<svg xmlns="http://www.w3.org/2000/svg" viewBox="0 0 512 512" fill="none"><rect x="36" y="36" width="440" height="440" rx="22" fill="#111111"/>
        <rect x="68" y="84" width="120" height="120" fill="#ffffff"/><rect x="196" y="84" width="120" height="120" fill="#ffffff"/><rect x="324" y="84" width="120" height="120" fill="#ffffff"/>
        <rect x="68" y="232" width="120" height="120" fill="#ffffff"/><rect x="196" y="232" width="120" height="120" fill="#ffffff"/><rect x="324" y="232" width="120" height="120" fill="#ffffff"/>
        <rect x="68" y="380" width="120" height="64" fill="#ffffff"/><rect x="196" y="380" width="120" height="64" fill="#ffffff"/><rect x="324" y="380" width="120" height="64" fill="#ffffff"/>
        <circle cx="36" cy="78" r="8" fill="#333"/><circle cx="36" cy="146" r="8" fill="#333"/><circle cx="36" cy="214" r="8" fill="#333"/><circle cx="36" cy="282" r="8" fill="#333"/><circle cx="36" cy="350" r="8" fill="#333"/><circle cx="36" cy="418" r="8" fill="#333"/><circle cx="476" cy="78" r="8" fill="#333"/><circle cx="476" cy="146" r="8" fill="#333"/><circle cx="476" cy="214" r="8" fill="#333"/><circle cx="476" cy="282" r="8" fill="#333"/><circle cx="476" cy="350" r="8" fill="#333"/><circle cx="476" cy="418" r="8" fill="#333"/></svg>