<svg xmlns="http://www.w3.org/2000/svg" viewBox="0 0 512 512" fill="none"><rect width="512" height="512" fill="#fbfbfb"/><circle cx="16" cy="16" r="2" fill="#d2d2d2"/><circle cx="16" cy="48" r="2" fill="#d2d2d2"/><circle cx="16" cy="80" r="2" fill="#d2d2d2"/><circle cx="16" cy="112" r="2" fill="#d2d2d2"/><circle cx="16" cy="144" r="2" fill="#d2d2d2"/><circle cx="16" cy="176" r="2" fill="#d2d2d2"/><circle cx="16" cy="208" r="2" fill="#d2d2d2"/><circle cx="16" cy="240" r="2" fill="#d2d2d2"/><circle cx="16" cy="272" r="2" fill="#d2d2d2"/><circle cx="16" cy="304" r="2" fill="#d2d2d2"/><circle cx="16" cy="336" r="2" fill="#d2d2d2"/><circle cx="16" cy="368" r="2" fill="#d2d2d2"/><circle cx="16" cy="400" r="2" fill="#d2d2d2"/><circle cx="16" cy="432" r="2" fill="#d2d2d2"/><circle cx="16" cy="464" r="2" fill="#d2d2d2"/><circle cx="16" cy="496" r="2" fill="#d2d2d2"/><circle cx="48" cy="16" r="2" fill="#d2d2d2"/><circle cx="48" cy="48" r="2" fill="#d2d2d2"/><circle cx="48" cy="80" r="2" fill="#d2d2d2"/><circle cx="48" cy="112" r="2" fill="#d2d2d2"/><circle cx="48" cy="144" r="2" fill="#d2d2d2"/><circle cx="48" cy="176" r="2" fill="#d2d2d2"/><circle cx="48" cy="208" r="2" fill="#d2d2d2"/><circle cx="48" cy="240" r="2" fill="#d2d2d2"/><circle cx="48" cy="272" r="2" fill="#d2d2d2"/><circle cx="48" cy="304" r="2" fill="#d2d2d2"/><circle cx="48" cy="336" r="2" fill="#d2d2d2"/><circle cx="48" cy="368" r="2" fill="#d2d2d2"/><circle cx="48" cy="400" r="2" fill="#d2d2d2"/><circle cx="48" cy="432" r="2" fill="#d2d2d2"/><circle cx="48" cy="464" r="2" fill="#d2d2d2"/><circle cx="48" cy="496" r="2" fill="#d2d2d2"/><circle cx="80" cy="16" r="2" fill="#d2d2d2"/><circle cx="80" cy="48" r="2" fill="#d2d2d2"/><circle cx="80" cy="80" r="2" fill="#d2d2d2"/><circle cx="80" cy="112" r="2" fill="#d2d2d2"/><circle cx="80" cy="144" r="2" fill="#d2d2d2"/><circle cx="80" cy="176" r="2" fill="#d2d2d2"/><circle cx="80" cy="208" r="2" fill="#d2d2d2"/><circle cx="80" cy="240" r="2" fill="#d2d2d2"/><circle cx="80" cy="272" r="2" fill="#d2d2d2"/><circle cx="80" cy="304" r="2" fill="#d2d2d2"/><circle cx="80" cy="336" r="2" fill="#d2d2d2"/><circle cx="80" cy="368" r="2" fill="#d2d2d2"/><circle cx="80" cy="400" r="2" fill="#d2d2d2"/><circle cx="80" cy="432" r="2" fill="#d2d2d2"/><circle cx="80" cy="464" r="2" fill="#d2d2d2"/><circle cx="80" cy="496" r="2" fill="#d2d2d2"/><circle cx="112" cy="16" r="2" fill="#d2d2d2"/><circle cx="112" cy="48" r="2" fill="#d2d2d2"/><circle cx="112" cy="80" r="2" fill="#d2d2d2"/><circle cx="112" cy="112" r="2" fill="#d2d2d2"/><circle cx="112" cy="144" r="2" fill="#d2d2d2"/><circle cx="112" cy="176" r="2" fill="#d2d2d2"/><circle cx="112" cy="208" r="2" fill="#d2d2d2"/><circle cx="112" cy="240" r="2" fill="#d2d2d2"/><circle cx="112" cy="272" r="2" fill="#d2d2d2"/><circle cx="112" cy="304" r="2" fill="#d2d2d2"/><circle cx="112" cy="336" r="2" fill="#d2d2d2"/><circle cx="112" cy="368" r="2" fill="#d2d2d2"/><circle cx="112" cy="400" r="2" fill="#d2d2d2"/><circle cx="112" cy="432" r="2" fill="#d2d2d2"/><circle cx="112" cy="464" r="2" fill="#d2d2d2"/><circle cx="112" cy="496" r="2" fill="#d2d2d2"/><circle cx="144" cy="16" r="2" fill="#d2d2d2"/><circle cx="144" cy="48" r="2" fill="#d2d2d2"/><circle cx="144" cy="80" r="2" fill="#d2d2d2"/><circle cx="144" cy="112" r="2" fill="#d2d2d2"/><circle cx="144" cy="144" r="2" fill="#d2d2d2"/><circle cx="144" cy="176" r="2" fill="#d2d2d2"/><circle cx="144" cy="208" r="2" fill="#d2d2d2"/><circle cx="144" cy="240" r="2" fill="#d2d2d2"/><circle cx="144" cy="272" r="2" fill="#d2d2d2"/><circle cx="144" cy="304" r="2" fill="#d2d2d2"/><circle cx="144" cy="336" r="2" fill="#d2d2d2"/><circle cx="144" cy="368" r="2" fill="#d2d2d2"/><circle cx="144" cy="400" r="2" fill="#d2d2d2"/><circle cx="144" cy="432" r="2" fill="#d2d2d2"/><circle cx="144" cy="464" r="2" fill="#d2d2d2"/><circle cx="144" cy="496" r="2" fill="#d2d2d2"/><circle cx="176" cy="16" r="2" fill="#d2d2d2"/><circle cx="176" cy="48" r="2" fill="#d2d2d2"/><circle cx="176" cy="80" r="2" fill="#d2d2d2"/><circle cx="176" cy="112" r="2" fill="#d2d2d2"/><circle cx="176" cy="144" r="2" fill="#d2d2d2"/><circle cx="176" cy="176" r="2" fill="#d2d2d2"/><circle cx="176" cy="208" r="2" fill="#d2d2d2"/><circle cx="176" cy="240" r="2" fill="#d2d2d2"/><circle cx="176" cy="272" r="2" fill="#d2d2d2"/><circle cx="176" cy="304" r="2" fill="#d2d2d2"/><circle cx="176" cy="336" r="2" fill="#d2d2d2"/><circle cx="176" cy="368" r="2" fill="#d2d2d2"/><circle cx="176" cy="400" r="2" fill="#d2d2d2"/><circle cx="176" cy="432" r="2" fill="#d2d2d2"/><circle cx="176" cy="464" r="2" fill="#d2d2d2"/><circle cx="176" cy="496" r="2" fill="#d2d2d2"/><circle cx="208" cy="16" r="2" fill="#d2d2d2"/><circle cx="208" cy="48" r="2" fill="#d2d2d2"/><circle cx="208" cy="80" r="2" fill="#d2d2d2"/><circle cx="208" cy="112" r="2" fill="#d2d2d2"/><circle cx="208" cy="144" r="2" fill="#d2d2d2"/><circle cx="208" cy="176" r="2" fill="#d2d2d2"/><circle cx="208" cy="208" r="2" fill="#d2d2d2"/><circle cx="208" cy="240" r="2" fill="#d2d2d2"/><circle cx="208" cy="272" r="2" fill="#d2d2d2"/><circle cx="208" cy="304" r="2" fill="#d2d2d2"/><circle cx="208" cy="336" r="2" fill="#d2d2d2"/><circle cx="208" cy="368" r="2" fill="#d2d2d2"/><circle cx="208" cy="400" r="2" fill="#d2d2d2"/><circle cx="208" cy="432" r="2" fill="#d2d2d2"/><circle cx="208" cy="464" r="2" fill="#d2d2d2"/><circle cx="208" cy="496" r="2" fill="#d2d2d2"/><circle cx="240" cy="16" r="2" fill="#d2d2d2"/><circle cx="240" cy="48" r="2" fill="#d2d2d2"/><circle cx="240" cy="80" r="2" fill="#d2d2d2"/><circle cx="240" cy="112" r="2" fill="#d2d2d2"/><circle cx="240" cy="144" r="2" fill="#d2d2d2"/><circle cx="240" cy="176" r="2" fill="#d2d2d2"/><circle cx="240" cy="208" r="2" fill="#d2d2d2"/><circle cx="240" cy="240" r="2" fill="#d2d2d2"/><circle cx="240" cy="272" r="2" fill="#d2d2d2"/><circle cx="240" cy="304" r="2" fill="#d2d2d2"/><circle cx="240" cy="336" r="2" fill="#d2d2d2"/><circle cx="240" cy="368" r="2" fill="#d2d2d2"/><circle cx="240" cy="400" r="2" fill="#d2d2d2"/><circle cx="240" cy="432" r="2" fill="#d2d2d2"/><circle cx="240" cy="464" r="2" fill="#d2d2d2"/><circle cx="240" cy="496" r="2" fill="#d2d2d2"/><circle cx="272" cy="16" r="2" fill="#d2d2d2"/><circle cx="272" cy="48" r="2" fill="#d2d2d2"/><circle cx="272" cy="80" r="2" fill="#d2d2d2"/><circle cx="272" cy="112" r="2" fill="#d2d2d2"/><circle cx="272" cy="144" r="2" fill="#d2d2d2"/><circle cx="272" cy="176" r="2" fill="#d2d2d2"/><circle cx="272" cy="208" r="2" fill="#d2d2d2"/><circle cx="272" cy="240" r="2" fill="#d2d2d2"/><circle cx="272" cy="272" r="2" fill="#d2d2d2"/><circle cx="272" cy="304" r="2" fill="#d2d2d2"/><circle cx="272" cy="336" r="2" fill="#d2d2d2"/><circle cx="272" cy="368" r="2" fill="#d2d2d2"/><circle cx="272" cy="400" r="2" fill="#d2d2d2"/><circle cx="272" cy="432" r="2" fill="#d2d2d2"/><circle cx="272" cy="464" r="2" fill="#d2d2d2"/><circle cx="272" cy="496" r="2" fill="#d2d2d2"/><circle cx="304" cy="16" r="2" fill="#d2d2d2"/><circle cx="304" cy="48" r="2" fill="#d2d2d2"/><circle cx="304" cy="80" r="2" fill="#d2d2d2"/><circle cx="304" cy="112" r="2" fill="#d2d2d2"/><circle cx="304" cy="144" r="2" fill="#d2d2d2"/><circle cx="304" cy="176" r="2" fill="#d2d2d2"/><circle cx="304" cy="208" r="2" fill="#d2d2d2"/><circle cx="304" cy="240" r="2" fill="#d2d2d2"/><circle cx="304" cy="272" r="2" fill="#d2d2d2"/><circle cx="304" cy="304" r="2" fill="#d2d2d2"/><circle cx="304" cy="336" r="2" fill="#d2d2d2"/><circle cx="304" cy="368" r="2" fill="#d2d2d2"/><circle cx="304" cy="400" r="2" fill="#d2d2d2"/><circle cx="304" cy="432" r="2" fill="#d2d2d2"/><circle cx="304" cy="464" r="2" fill="#d2d2d2"/><circle cx="304" cy="496" r="2" fill="#d2d2d2"/><circle cx="336" cy="16" r="2" fill="#d2d2d2"/><circle cx="336" cy="48" r="2" fill="#d2d2d2"/><circle cx="336" cy="80" r="2" fill="#d2d2d2"/><circle cx="336" cy="112" r="2" fill="#d2d2d2"/><circle cx="336" cy="144" r="2" fill="#d2d2d2"/><circle cx="336" cy="176" r="2" fill="#d2d2d2"/><circle cx="336" cy="208" r="2" fill="#d2d2d2"/><circle cx="336" cy="240" r="2" fill="#d2d2d2"/><circle cx="336" cy="272" r="2" fill="#d2d2d2"/><circle cx="336" cy="304" r="2" fill="#d2d2d2"/><circle cx="336" cy="336" r="2" fill="#d2d2d2"/><circle cx="336" cy="368" r="2" fill="#d2d2d2"/><circle cx="336" cy="400" r="2" fill="#d2d2d2"/><circle cx="336" cy="432" r="2" fill="#d2d2d2"/><circle cx="336" cy="464" r="2" fill="#d2d2d2"/><circle cx="336" cy="496" r="2" fill="#d2d2d2"/><circle cx="368" cy="16" r="2" fill="#d2d2d2"/><circle cx="368" cy="48" r="2" fill="#d2d2d2"/><circle cx="368" cy="80" r="2" fill="#d2d2d2"/><circle cx="368" cy="112" r="2" fill="#d2d2d2"/><circle cx="368" cy="144" r="2" fill="#d2d2d2"/><circle cx="368" cy="176" r="2" fill="#d2d2d2"/><circle cx="368" cy="208" r="2" fill="#d2d2d2"/><circle cx="368" cy="240" r="2" fill="#d2d2d2"/><circle cx="368" cy="272" r="2" fill="#d2d2d2"/><circle cx="368" cy="304" r="2" fill="#d2d2d2"/><circle cx="368" cy="336" r="2" fill="#d2d2d2"/><circle cx="368" cy="368" r="2" fill="#d2d2d2"/><circle cx="368" cy="400" r="2" fill="#d2d2d2"/><circle cx="368" cy="432" r="2" fill="#d2d2d2"/><circle cx="368" cy="464" r="2" fill="#d2d2d2"/><circle cx="368" cy="496" r="2" fill="#d2d2d2"/><circle cx="400" cy="16" r="2" fill="#d2d2d2"/><circle cx="400" cy="48" r="2" fill="#d2d2d2"/><circle cx="400" cy="80" r="2" fill="#d2d2d2"/><circle cx="400" cy="112" r="2" fill="#d2d2d2"/><circle cx="400" cy="144" r="2" fill="#d2d2d2"/><circle cx="400" cy="176" r="2" fill="#d2d2d2"/><circle cx="400" cy="208" r="2" fill="#d2d2d2"/><circle cx="400" cy="240" r="2" fill="#d2d2d2"/><circle cx="400" cy="272" r="2" fill="#d2d2d2"/><circle cx="400" cy="304" r="2" fill="#d2d2d2"/><circle cx="400" cy="336" r="2" fill="#d2d2d2"/><circle cx="400" cy="368" r="2" fill="#d2d2d2"/><circle cx="400" cy="400" r="2" fill="#d2d2d2"/><circle cx="400" cy="432" r="2" fill="#d2d2d2"/><circle cx="400" cy="464" r="2" fill="#d2d2d2"/><circle cx="400" cy="496" r="2" fill="#d2d2d2"/><circle cx="432" cy="16" r="2" fill="#d2d2d2"/><circle cx="432" cy="48" r="2" fill="#d2d2d2"/><circle cx="432" cy="80" r="2" fill="#d2d2d2"/><circle cx="432" cy="112" r="2" fill="#d2d2d2"/><circle cx="432" cy="144" r="2" fill="#d2d2d2"/><circle cx="432" cy="176" r="2" fill="#d2d2d2"/><circle cx="432" cy="208" r="2" fill="#d2d2d2"/><circle cx="432" cy="240" r="2" fill="#d2d2d2"/><circle cx="432" cy="272" r="2" fill="#d2d2d2"/><circle cx="432" cy="304" r="2" fill="#d2d2d2"/><circle cx="432" cy="336" r="2" fill="#d2d2d2"/><circle cx="432" cy="368" r="2" fill="#d2d2d2"/><circle cx="432" cy="400" r="2" fill="#d2d2d2"/><circle cx="432" cy="432" r="2" fill="#d2d2d2"/><circle cx="432" cy="464" r="2" fill="#d2d2d2"/><circle cx="432" cy="496" r="2" fill="#d2d2d2"/><circle cx="464" cy="16" r="2" fill="#d2d2d2"/><circle cx="464" cy="48" r="2" fill="#d2d2d2"/><circle cx="464" cy="80" r="2" fill="#d2d2d2"/><circle cx="464" cy="112" r="2" fill="#d2d2d2"/><circle cx="464" cy="144" r="2" fill="#d2d2d2"/><circle cx="464" cy="176" r="2" fill="#d2d2d2"/><circle cx="464" cy="208" r="2" fill="#d2d2d2"/><circle cx="464" cy="240" r="2" fill="#d2d2d2"/><circle cx="464" cy="272" r="2" fill="#d2d2d2"/><circle cx="464" cy="304" r="2" fill="#d2d2d2"/><circle cx="464" cy="336" r="2" fill="#d2d2d2"/><circle cx="464" cy="368" r="2" fill="#d2d2d2"/><circle cx="464" cy="400" r="2" fill="#d2d2d2"/><circle cx="464" cy="432" r="2" fill="#d2d2d2"/><circle cx="464" cy="464" r="2" fill="#d2d2d2"/><circle cx="464" cy="496" r="2" fill="#d2d2d2"/><circle cx="496" cy="16" r="2" fill="#d2d2d2"/><circle cx="496" cy="48" r="2" fill="#d2d2d2"/><circle cx="496" cy="80" r="2" fill="#d2d2d2"/><circle cx="496" cy="112" r="2" fill="#d2d2d2"/><circle cx="496" cy="144" r="2" fill="#d2d2d2"/><circle cx="496" cy="176" r="2" fill="#d2d2d2"/><circle cx="496" cy="208" r="2" fill="#d2d2d2"/><circle cx="496" cy="240" r="2" fill="#d2d2d2"/><circle cx="496" cy="272" r="2" fill="#d2d2d2"/><circle cx="496" cy="304" r="2" fill="#d2d2d2"/><circle cx="496" cy="336" r="2" fill="#d2d2d2"/><circle cx="496" cy="368" r="2" fill="#d2d2d2"/><circle cx="496" cy="400" r="2" fill="#d2d2d2"/><circle cx="496" cy="432" r="2" fill="#d2d2d2"/><circle cx="496" cy="464" r="2" fill="#d2d2d2"/><circle cx="496" cy="496" r="2" fill="#d2d2d2"/></svg>